<svg width="40" height="40" viewBox="0 0 40 40" fill="none" xmlns="http://www.w3.org/2000/svg">
<path d="M27.9365 40C26.8229 40 26.0806 39.3063 26.0806 38.2657V31.5018C26.2662 30.1143 25.7094 29.0737 24.7814 28.2065C24.2246 27.6862 24.039 26.9925 24.4102 26.4722C24.5958 25.7785 25.3382 25.4316 25.895 25.2582C31.2772 24.7379 36.2882 23.0035 36.2882 14.8522C36.2882 12.9444 35.5458 11.0366 34.061 9.47573C33.5043 8.95543 33.5043 8.2617 33.6899 7.7414C34.2466 6.35393 34.2466 4.96647 33.8754 3.579C32.9475 3.75243 31.4627 4.27273 29.05 5.83363C28.6789 6.1805 28.1221 6.1805 27.5653 6.00707C23.6679 4.96647 19.3992 4.96647 15.5018 6.00707C14.945 6.1805 14.3882 6.1805 13.8315 5.83363C11.6043 4.27273 9.93402 3.75243 9.00606 3.579C8.63487 4.96647 8.63487 6.35393 9.19165 7.7414C9.37724 8.43513 9.37724 9.12887 8.82046 9.47573C7.33572 11.0366 6.59335 12.9444 6.59335 14.8522C6.59335 23.0035 11.6044 24.7379 16.9865 25.2582C17.7289 25.2582 18.2857 25.7785 18.4713 26.4722C18.6569 27.1659 18.4713 27.8597 18.1001 28.2065C17.1721 29.0737 16.8009 30.1143 16.8009 31.3283V32.8892V33.0627V38.0922C16.8009 39.1328 16.0586 39.8266 14.945 39.8266C13.8315 39.8266 13.0891 39.1328 13.0891 38.0922V35.1439C7.52132 36.011 5.10861 33.0627 3.43828 31.1549C2.69591 30.2877 2.13913 29.594 1.39676 29.4206C0.468801 29.2471 -0.273571 28.2065 0.0976142 27.3394C0.283209 26.4722 1.39676 25.7785 2.32473 26.1253C4.18065 26.6456 5.29421 27.8597 6.40776 29.0737C7.8925 30.9815 9.19165 32.3689 13.0891 31.6752V31.5018C13.0891 30.4612 13.2747 29.2471 13.6459 28.38C8.44928 27.3394 2.8815 24.2176 2.8815 15.0256C2.8815 12.4241 3.80947 9.99603 5.4798 8.08827C4.73743 5.6602 4.92302 3.40557 6.03658 1.15093C6.22217 0.630633 6.59335 0.283766 7.15013 0.110333C7.8925 -0.0631002 10.3052 -0.409967 15.3162 2.5384C19.3992 1.67123 23.6679 1.67123 27.5653 2.5384C32.3907 -0.409967 34.989 -0.0631002 35.7314 0.110333C36.2882 0.283766 36.6593 0.630633 36.8449 1.15093C37.7729 3.40557 37.9585 5.6602 37.4017 7.91483C39.072 9.8226 40 12.2507 40 14.8522C40 24.7379 33.6899 27.3394 29.2356 28.38C29.6068 29.4206 29.7924 30.6346 29.7924 31.6752V38.2657C29.7924 39.3063 29.05 40 27.9365 40Z" fill="#FF6400"/>
</svg>
