<svg width="45" height="56" viewBox="0 0 45 56" fill="none" xmlns="http://www.w3.org/2000/svg">
<path d="M24.8899 27.9579L44.0089 47.0599C45.3304 48.3802 45.3304 50.5152 44.0089 51.8214L40.8318 54.9957C39.5103 56.316 37.3735 56.316 36.0661 54.9957L22.5 41.4698L8.94798 55.0098C7.62652 56.3301 5.48969 56.3301 4.18229 55.0098L0.991096 51.8355C-0.330366 50.5152 -0.330366 48.3802 0.991096 47.074L20.1101 27.9719C21.4316 26.6376 23.5684 26.6376 24.8899 27.9579ZM20.1101 0.990218L0.991096 20.0923C-0.330366 21.4126 -0.330366 23.5475 0.991096 24.8538L4.16823 28.0281C5.48969 29.3484 7.62652 29.3484 8.93393 28.0281L22.4859 14.4881L36.038 28.0281C37.3594 29.3484 39.4963 29.3484 40.8037 28.0281L43.9808 24.8538C45.3022 23.5335 45.3022 21.3985 43.9808 20.0923L24.8618 0.990218C23.5684 -0.330073 21.4316 -0.330073 20.1101 0.990218Z" fill="#FF6400"/>
</svg>
