<svg width="41" height="40" viewBox="0 0 41 40" fill="none" xmlns="http://www.w3.org/2000/svg">
<path fill-rule="evenodd" clip-rule="evenodd" d="M27.8977 15.2382C25.4866 15.2382 23.1743 16.2416 21.4695 18.0277C19.7646 19.8136 18.8068 22.2361 18.8068 24.762V36.1906H22.4432V24.762C22.4432 23.2464 23.0179 21.7931 24.0408 20.7215C25.0637 19.6498 26.451 19.0477 27.8977 19.0477C29.3444 19.0477 30.7317 19.6498 31.7546 20.7215C32.7775 21.7931 33.3523 23.2464 33.3523 24.762V36.1906H36.9886V24.762C36.9886 22.2361 36.0308 19.8136 34.3259 18.0277C32.6212 16.2416 30.3088 15.2382 27.8977 15.2382ZM27.8977 11.4287C24.5223 11.4287 21.285 12.8335 18.8983 15.3339C16.5113 17.8344 15.1704 21.2258 15.1704 24.762V38.0953C15.1704 39.1473 15.9845 40.0001 16.9886 40.0001H24.2614C25.2655 40.0001 26.0795 39.1473 26.0795 38.0953V24.762C26.0795 24.2569 26.2712 23.7723 26.6121 23.4152C26.953 23.058 27.4155 22.8573 27.8977 22.8573C28.3799 22.8573 28.8424 23.058 29.1834 23.4152C29.5243 23.7723 29.7159 24.2569 29.7159 24.762V38.0953C29.7159 39.1473 30.5299 40.0001 31.5341 40.0001H38.8068C39.811 40.0001 40.625 39.1473 40.625 38.0953V24.762C40.625 21.2258 39.2841 17.8344 36.8972 15.3339C34.5104 12.8335 31.2732 11.4287 27.8977 11.4287Z" fill="#FF6400"/>
<path fill-rule="evenodd" clip-rule="evenodd" d="M0.625 15.2383C0.625 14.1863 1.43904 13.3335 2.44318 13.3335H9.71591C10.7201 13.3335 11.5341 14.1863 11.5341 15.2383V38.0953C11.5341 39.1473 10.7201 40.0001 9.71591 40.0001H2.44318C1.43904 40.0001 0.625 39.1473 0.625 38.0953V15.2383ZM4.26136 17.143V36.1906H7.89773V17.143H4.26136Z" fill="#FF6400"/>
<path fill-rule="evenodd" clip-rule="evenodd" d="M6.07955 3.80954C5.0754 3.80954 4.26136 4.66235 4.26136 5.71431C4.26136 6.76628 5.0754 7.61908 6.07955 7.61908C7.08369 7.61908 7.89773 6.76628 7.89773 5.71431C7.89773 4.66235 7.08369 3.80954 6.07955 3.80954ZM0.625 5.71431C0.625 2.55839 3.06709 0 6.07955 0C9.092 0 11.5341 2.55839 11.5341 5.71431C11.5341 8.87023 9.092 11.4286 6.07955 11.4286C3.06709 11.4286 0.625 8.87023 0.625 5.71431Z" fill="#FF6400"/>
</svg>
