<svg width="40" height="32" viewBox="0 0 40 32" fill="none" xmlns="http://www.w3.org/2000/svg">
<path d="M36.25 0H3.75C1.67891 0 0 1.79083 0 4V28C0 30.2092 1.67891 32 3.75 32H36.25C38.3211 32 40 30.2092 40 28V4C40 1.79083 38.3211 0 36.25 0ZM36.25 4V7.40042C34.4983 8.922 31.7056 11.288 25.7354 16.2746C24.4197 17.3785 21.8134 20.0306 20 19.9997C18.1869 20.0309 15.5798 17.3781 14.2646 16.2746C8.29531 11.2888 5.50195 8.92225 3.75 7.40042V4H36.25ZM3.75 28V12.5332C5.54016 14.0541 8.07883 16.1883 11.9483 19.4203C13.6559 20.8541 16.6462 24.0192 20 23.9999C23.3373 24.0192 26.2898 20.9 28.051 19.421C31.9204 16.1891 34.4598 14.0543 36.25 12.5333V28H3.75Z" fill="#FF6400"/>
</svg>
