<svg width="40" height="40" viewBox="0 0 40 40" fill="none" xmlns="http://www.w3.org/2000/svg">
<path d="M39.2409 12.4768L20.9597 0.289309C20.3357 -0.0946765 19.6698 -0.0981922 19.0401 0.289309L0.758905 12.4768C0.290156 12.7893 0 13.3474 0 13.9054V26.0928C0 26.6509 0.290156 27.2089 0.758983 27.5214L19.0402 39.7107C19.6642 40.0947 20.3301 40.0982 20.9598 39.7107L39.241 27.5214C39.7098 27.209 40 26.6509 40 26.0928V13.9054C39.9999 13.3474 39.7098 12.7893 39.2409 12.4768V12.4768ZM21.7187 4.93206L35.1785 13.9054L29.1741 17.9233L21.7187 12.9455V4.93206ZM18.2812 4.93206V12.9455L10.8258 17.9233L4.8214 13.9054L18.2812 4.93206ZM3.43749 17.1197L7.74553 19.9991L3.43749 22.8786V17.1197ZM18.2812 35.0662L4.8214 26.0929L10.8258 22.075L18.2812 27.0528V35.0662ZM20 24.0617L13.9285 19.9991L20 15.9366L26.0714 19.9991L20 24.0617ZM21.7187 35.0662V27.0528L29.1741 22.075L35.1785 26.0929L21.7187 35.0662ZM36.5624 22.8786L32.2544 19.9991L36.5624 17.1197V22.8786Z" fill="#FF6400"/>
</svg>
