<svg width="40" height="40" viewBox="0 0 40 40" fill="none" xmlns="http://www.w3.org/2000/svg">
<path d="M16.9464 15.8893C16.7589 16.1839 14.3212 19.8527 9.64382 26.9136C9.13337 27.6545 8.51875 28.0295 7.79995 28.0295H1.01826C0.216126 28.0295 -0.242237 27.36 0.132787 26.744L7.32076 15.9161C7.34159 15.9161 7.34159 15.9072 7.32076 15.8893L2.74754 9.14082C2.2996 8.44454 2.77879 7.88217 3.63302 7.88217H10.4147C11.1752 7.88217 11.8002 8.24816 12.2899 8.97121L16.9464 15.8893ZM39.8542 1.25865L24.8532 23.8429V23.8697L34.3955 38.7414C34.8017 39.3751 34.4163 40 33.51 40H26.7179C25.9262 40 25.3011 39.6429 24.8428 38.911L15.2171 23.8697C15.5609 23.3519 20.5821 15.7643 30.3014 1.08904C30.7806 0.36599 31.3848 0 32.1245 0H38.9687C39.8021 0 40.25 0.598081 39.8542 1.25865Z" fill="#FF6400"/>
</svg>
